<svg xmlns="http://www.w3.org/2000/svg" xmlns:xlink="http://www.w3.org/1999/xlink" width="20.9" height="20.9" viewBox="0 0 20.9 20.9">
  <defs>
    <clipPath id="clip-path">
      <rect id="Rectangle_361" data-name="Rectangle 361" width="20.9" height="20.9" fill="#fff"/>
    </clipPath>
  </defs>
  <g id="Groupe_316" data-name="Groupe 316" clip-path="url(#clip-path)">
    <path id="Tracé_257" data-name="Tracé 257" d="M7.812,70.928A2.606,2.606,0,0,0,5.236,68.72q-1.31,0-2.62,0a2.484,2.484,0,0,0-1.029.213A2.575,2.575,0,0,0,.1,70.674c-.022.082-.039.165-.058.247a.352.352,0,0,1-.041.2v6.464a.3.3,0,0,1,.039.184.046.046,0,0,1-.018-.031c0,.01,0,.02,0,.03a1.253,1.253,0,0,0,.055.319,2.608,2.608,0,0,0,.756,1.254,2.417,2.417,0,0,0,1.512.679s0-.006,0-.009c.048,0,.1-.015.143.02H5.342c.022-.03.054-.018.082-.019h.081c.057-.008.115-.014.171-.025A2.622,2.622,0,0,0,7.847,77.4q0-3.012,0-6.024a2.964,2.964,0,0,0-.036-.446" transform="translate(0 -59.136)" fill="#fff"/>
    <path id="Tracé_258" data-name="Tracé 258" d="M80.014,104.061q0-.818,0-1.636c0-.027,0-.054,0-.081a1.545,1.545,0,0,0-.03-.324A2.594,2.594,0,0,0,79.1,100.5a2.53,2.53,0,0,0-1.664-.619q-3.063-.009-6.127,0a2.411,2.411,0,0,0-.574.07,2.583,2.583,0,0,0-1.632,1.18,2.468,2.468,0,0,0-.384,1.292c-.008.622,0,1.244,0,1.866a2.163,2.163,0,0,0,.026.314,2.554,2.554,0,0,0,.33.945,2.6,2.6,0,0,0,1.27,1.1,3,3,0,0,0,.7.182h.081c.035,0,.074-.014.1.019h6.239c.036-.036.082-.015.123-.02h.1s0,.006,0,.009a2.03,2.03,0,0,0,.339-.041,2.58,2.58,0,0,0,1.416-.884,2.318,2.318,0,0,0,.578-1.511h-.007c0-.115,0-.23,0-.345" transform="translate(-59.134 -85.952)" fill="#fff"/>
    <path id="Tracé_259" data-name="Tracé 259" d="M7.8,2.23A2.594,2.594,0,0,0,6.939.712,2.576,2.576,0,0,0,5.424.084h-.1l-2.013,0-.844,0s0,0,0-.007a2.045,2.045,0,0,0-.791.152A2.629,2.629,0,0,0,.2,1.655a1.918,1.918,0,0,0-.178.676c0,.012,0,.024,0,.036a.047.047,0,0,1,.019-.039.336.336,0,0,1-.039.2V5.448a.336.336,0,0,1,.039.2c.007.04.014.08.021.12A2.542,2.542,0,0,0,.707,7.065a2.549,2.549,0,0,0,1.424.795,3.6,3.6,0,0,0,.689.052c.608,0,1.216,0,1.824,0,.258,0,.516.008.774-.011A2.584,2.584,0,0,0,7.208,7a2.531,2.531,0,0,0,.636-1.657c.012-.9,0-1.794,0-2.69A2.274,2.274,0,0,0,7.8,2.23" transform="translate(0 -0.065)" fill="#fff"/>
    <path id="Tracé_260" data-name="Tracé 260" d="M149.73,18.273h0c0,.034,0,.068,0,.1q0,3.513,0,7.027c0,.024,0,.047,0,.071h.017v-7.2h-.017" transform="translate(-128.848 -15.725)" fill="#fff"/>
    <path id="Tracé_261" data-name="Tracé 261" d="M92.472.021l.112,0c0-.006,0-.012,0-.018H86.262c0,.006,0,.012,0,.018l.224,0h5.987" transform="translate(-74.232 -0.001)" fill="#fff"/>
    <path id="Tracé_262" data-name="Tracé 262" d="M20.53.011h.014s0-.008,0-.011H17.689s0,.007,0,.01H20.53" transform="translate(-15.221 -0.001)" fill="#fff"/>
    <path id="Tracé_263" data-name="Tracé 263" d="M149.757,117.663q0,.957,0,1.914c0,.012,0,.024,0,.036h.01v-2.059h-.018a.313.313,0,0,1,.007.111" transform="translate(-128.868 -101.16)" fill="#fff"/>
    <path id="Tracé_264" data-name="Tracé 264" d="M0,16.553v.122a.542.542,0,0,0,.02-.165c0,.016,0,.033-.02.043" transform="translate(0 -14.208)" fill="#fff"/>
    <path id="Tracé_265" data-name="Tracé 265" d="M0,38.725c.032.019.009.063.039.082C.027,38.739.017,38.67,0,38.6Z" transform="translate(0 -33.22)" fill="#fff"/>
    <path id="Tracé_266" data-name="Tracé 266" d="M0,84.6v.122c.019-.067.023-.137.041-.2-.033.017-.008.064-.041.082" transform="translate(0 -72.73)" fill="#fff"/>
    <path id="Tracé_267" data-name="Tracé 267" d="M0,132.452a.042.042,0,0,1,.02.031A.531.531,0,0,0,0,132.33Z" transform="translate(0 -113.877)" fill="#fff"/>
    <path id="Tracé_268" data-name="Tracé 268" d="M16.819,149.795h0s0,.007,0,.011h.143c-.045-.021-.092-.005-.138-.01" transform="translate(-14.47 -128.906)" fill="#fff"/>
    <path id="Tracé_269" data-name="Tracé 269" d="M131.6.018h.122c0-.006,0-.012,0-.018H131.6a.029.029,0,0,1,0,.018" transform="translate(-113.248)" fill="#fff"/>
    <path id="Tracé_270" data-name="Tracé 270" d="M131.452,149.8h.122s0-.007,0-.01c-.041,0-.083-.011-.123.01" transform="translate(-113.121 -128.903)" fill="#fff"/>
    <path id="Tracé_271" data-name="Tracé 271" d="M38.171.011a.224.224,0,0,1,.1.008q0-.009,0-.019h-.1c.006,0,.008.007.007.011" transform="translate(-32.842)" fill="#fff"/>
    <path id="Tracé_272" data-name="Tracé 272" d="M38.172.081h-.007V.088s0,0,.006-.006" transform="translate(-32.843 -0.069)" fill="#fff"/>
    <path id="Tracé_273" data-name="Tracé 273" d="M149.751,17.54v.1a.029.029,0,0,1,.017,0v-.1h-.017" transform="translate(-128.869 -15.094)" fill="#fff"/>
    <path id="Tracé_274" data-name="Tracé 274" d="M85.973,149.794a.086.086,0,0,1,0,.01h.1c-.032-.02-.068-.007-.1-.01" transform="translate(-73.984 -128.905)" fill="#fff"/>
    <path id="Tracé_275" data-name="Tracé 275" d="M132.336,149.8a.007.007,0,0,1,0,0s0,.006-.007.006h.1s0-.007,0-.011h-.1" transform="translate(-113.876 -128.91)" fill="#fff"/>
    <path id="Tracé_276" data-name="Tracé 276" d="M132.335,149.745h0a.014.014,0,0,0-.006-.009s0,.006,0,.009h0" transform="translate(-113.88 -128.856)" fill="#fff"/>
    <path id="Tracé_277" data-name="Tracé 277" d="M38.31,149.805h.082s0-.007,0-.01c-.027,0-.056-.009-.082.01" transform="translate(-32.968 -128.906)" fill="#fff"/>
    <path id="Tracé_278" data-name="Tracé 278" d="M38.9,149.748h0a.007.007,0,0,1,0,0s0,.006-.007.006h.082c0-.006,0-.013,0-.019-.024.016-.05.006-.075.009" transform="translate(-33.471 -128.858)" fill="#fff"/>
    <path id="Tracé_279" data-name="Tracé 279" d="M38.9,149.748a.014.014,0,0,0-.006-.009s0,.006,0,.009H38.9" transform="translate(-33.474 -128.858)" fill="#fff"/>
    <path id="Tracé_280" data-name="Tracé 280" d="M85.465,149.745c-.025,0-.052.007-.075-.009,0,.007,0,.013,0,.02h.082c-.006,0-.008-.007-.007-.011" transform="translate(-73.483 -128.856)" fill="#fff"/>
    <path id="Tracé_281" data-name="Tracé 281" d="M85.927,149.747s0,0,0,0h.006s0-.006,0-.009,0,0-.006.007" transform="translate(-73.945 -128.859)" fill="#fff"/>
    <path id="Tracé_282" data-name="Tracé 282" d="M79.99,9.694q0-.774,0-1.548,0-2.642,0-5.285a.432.432,0,0,1,.019-.191.027.027,0,0,1,.016-.013.065.065,0,0,1,0-.1c-.007-.074-.008-.148-.02-.222A2.621,2.621,0,0,0,77.617.127a.081.081,0,0,1-.122,0,.027.027,0,0,1-.013.016.316.316,0,0,1-.15.019h-6c-.056,0-.117.012-.164-.035-.061,0-.121.011-.182.019a2.556,2.556,0,0,0-1.061.389,2.6,2.6,0,0,0-1.2,2.221q0,3.445,0,6.89a2.727,2.727,0,0,0,.1.764A2.619,2.619,0,0,0,71.377,12.3c.812,0,1.624,0,2.436,0q1.784,0,3.567,0a2.714,2.714,0,0,0,.547-.049,2.606,2.606,0,0,0,2.1-2.4c-.048-.047-.035-.107-.035-.163" transform="translate(-59.143 -0.109)" fill="#fff"/>
    <path id="Tracé_283" data-name="Tracé 283" d="M131.6.126h0Z" transform="translate(-113.251 -0.109)" fill="#fff"/>
    <path id="Tracé_284" data-name="Tracé 284" d="M149.749,18.27h0" transform="translate(-128.866 -15.722)" fill="#fff"/>
  </g>
</svg>
