<svg xmlns="http://www.w3.org/2000/svg" width="14.291" height="14.287" viewBox="0 0 14.291 14.287">
  <path id="a96fbbf0d28bb63ca6dab230e9c1ea1f" d="M6.794,6.081,8.431,4.438V11.29a.715.715,0,0,0,1.429,0V4.438L11.5,6.081a.717.717,0,1,0,1.015-1.015L9.653,2.209a.739.739,0,0,0-1.015,0L5.78,5.067A.717.717,0,1,0,6.794,6.081Zm8.782,4.494a.715.715,0,0,0-.715.715v2.858a.715.715,0,0,1-.715.715h-10a.715.715,0,0,1-.715-.715V11.29A.715.715,0,1,0,2,11.29v2.858a2.144,2.144,0,0,0,2.144,2.144h10a2.144,2.144,0,0,0,2.144-2.144V11.29A.715.715,0,0,0,15.576,10.576Z" transform="translate(-2 -2.005)" fill="#fff"/>
</svg>
