<svg xmlns="http://www.w3.org/2000/svg" width="22.642" height="21.229" viewBox="0 0 22.642 21.229">
  <g id="Groupe_460" data-name="Groupe 460" transform="translate(0 0)">
    <path id="Tracé_98" data-name="Tracé 98" d="M18.6,48.871H15.561v0h-6.7A4.669,4.669,0,0,1,5.7,47.75a3.585,3.585,0,0,1-1.273-2.857A3.494,3.494,0,0,1,5.7,42.08a4.734,4.734,0,0,1,3.165-1.1h1.317V45.3a1.453,1.453,0,0,0,2.388,1.113L19.018,41a2.29,2.29,0,0,0,0-3.508l-6.452-5.418a1.453,1.453,0,0,0-2.388,1.113v3.774H8.692a8.988,8.988,0,0,0-6.209,2.217A7.439,7.439,0,0,0,0,44.96a7.488,7.488,0,0,0,2.447,5.781A8.793,8.793,0,0,0,8.573,52.96H18.6l-.011-.01a2.77,2.77,0,0,1,.011-4.079" transform="translate(0 -31.731)" fill="#afafaf"/>
    <path id="Tracé_99" data-name="Tracé 99" d="M519.722,506.7a1.912,1.912,0,1,1-1.912-1.912,1.912,1.912,0,0,1,1.912,1.912" transform="translate(-497.08 -487.531)" fill="#afafaf"/>
  </g>
</svg>
