<svg xmlns="http://www.w3.org/2000/svg" width="17.748" height="17.748" viewBox="0 0 17.748 17.748">
  <path id="b42757605ac311d8a548ba3e32940d43" d="M17.086,3.775H15.311V2.887a.887.887,0,1,0-1.775,0v.887H8.212V2.887a.887.887,0,1,0-1.775,0v.887H4.662A2.662,2.662,0,0,0,2,6.437V17.086a2.662,2.662,0,0,0,2.662,2.662H17.086a2.662,2.662,0,0,0,2.662-2.662V6.437a2.662,2.662,0,0,0-2.662-2.662Zm.887,13.311a.887.887,0,0,1-.887.887H4.662a.887.887,0,0,1-.887-.887V10.874h14.2Zm0-7.987H3.775V6.437a.887.887,0,0,1,.887-.887H6.437v.887a.887.887,0,0,0,1.775,0V5.55h5.324v.887a.887.887,0,1,0,1.775,0V5.55h1.775a.887.887,0,0,1,.887.887Z" transform="translate(-2 -2)" fill="#909090"/>
</svg>
