<svg id="Groupe_353" data-name="Groupe 353" xmlns="http://www.w3.org/2000/svg" xmlns:xlink="http://www.w3.org/1999/xlink" width="17.336" height="17.302" viewBox="0 0 17.336 17.302">
  <defs>
    <clipPath id="clip-path">
      <rect id="Rectangle_444" data-name="Rectangle 444" width="17.336" height="17.301" fill="#626262"/>
    </clipPath>
  </defs>
  <g id="Groupe_350" data-name="Groupe 350" clip-path="url(#clip-path)">
    <path id="Tracé_286" data-name="Tracé 286" d="M0,87.007a5.055,5.055,0,0,1,.309-.812,2.048,2.048,0,0,1,1.841-1.07c1.918-.013,3.835-.006,5.753,0a.724.724,0,1,1,0,1.445q-2.817,0-5.635,0a.727.727,0,0,0-.816.81q0,4.966,0,9.932a.721.721,0,0,0,.8.806H12.2a.724.724,0,0,0,.8-.8q0-2.834,0-5.668a.721.721,0,0,1,.957-.712.733.733,0,0,1,.488.736c0,.682,0,1.365,0,2.047,0,1.213,0,2.425,0,3.638a2.162,2.162,0,0,1-1.692,2.147,1.131,1.131,0,0,1-.251.022q-5.2,0-10.406,0A1.961,1.961,0,0,1,.35,98.553,4.832,4.832,0,0,1,0,97.668V87.007" transform="translate(0 -82.23)" fill="#626262"/>
    <path id="Tracé_287" data-name="Tracé 287" d="M187.891,68.261l2.545,2.545c-.03.033-.069.077-.111.119q-2.746,2.746-5.5,5.488a.858.858,0,0,1-.4.218c-.787.17-1.578.321-2.368.477a.369.369,0,0,1-.472-.464c.162-.818.326-1.635.5-2.451a.548.548,0,0,1,.135-.263q2.813-2.823,5.633-5.638a.475.475,0,0,1,.039-.032" transform="translate(-175.418 -65.946)" fill="#626262"/>
    <path id="Tracé_288" data-name="Tracé 288" d="M392.195,1.529c.35-.361.688-.759,1.076-1.1a1.775,1.775,0,0,1,2.4.085,1.758,1.758,0,0,1,.165,2.393,13.809,13.809,0,0,1-1.161,1.1l-2.48-2.48" transform="translate(-378.895 -0.001)" fill="#626262"/>
  </g>
</svg>
