<svg id="Groupe_122" data-name="Groupe 122" xmlns="http://www.w3.org/2000/svg" xmlns:xlink="http://www.w3.org/1999/xlink" width="23.655" height="13.885" viewBox="0 0 23.655 13.885">
  <defs>
    <clipPath id="clip-path">
      <rect id="Rectangle_237" data-name="Rectangle 237" width="23.655" height="13.885" transform="translate(0 0)" fill="#afafaf"/>
    </clipPath>
  </defs>
  <g id="Groupe_121" data-name="Groupe 121" transform="translate(0 0)" clip-path="url(#clip-path)">
    <path id="Tracé_104" data-name="Tracé 104" d="M132.772,13.885a1.523,1.523,0,0,1-1.1-2.573l4.226-4.448-4.207-4.272A1.523,1.523,0,1,1,133.858.454L139.1,5.777a1.523,1.523,0,0,1,.019,2.118l-5.241,5.516a1.519,1.519,0,0,1-1.1.474" transform="translate(-115.882 0)" fill="#afafaf"/>
    <path id="Tracé_105" data-name="Tracé 105" d="M6.764,13.885a1.519,1.519,0,0,1-1.1-.474L.419,7.9A1.523,1.523,0,0,1,.438,5.777L5.679.455A1.523,1.523,0,1,1,7.85,2.592L3.642,6.865l4.226,4.448a1.523,1.523,0,0,1-1.1,2.573" transform="translate(0 0)" fill="#afafaf"/>
    <path id="Tracé_106" data-name="Tracé 106" d="M55.642,47.716a1.535,1.535,0,1,1-1.535-1.535,1.535,1.535,0,0,1,1.535,1.535" transform="translate(-46.416 -40.774)" fill="#afafaf"/>
    <path id="Tracé_107" data-name="Tracé 107" d="M90.976,47.716a1.535,1.535,0,1,1-1.535-1.535,1.535,1.535,0,0,1,1.535,1.535" transform="translate(-77.613 -40.774)" fill="#afafaf"/>
    <path id="Tracé_108" data-name="Tracé 108" d="M126.309,47.716a1.535,1.535,0,1,1-1.535-1.535,1.535,1.535,0,0,1,1.535,1.535" transform="translate(-108.809 -40.774)" fill="#afafaf"/>
  </g>
</svg>
