<svg id="Groupe_118" data-name="Groupe 118" xmlns="http://www.w3.org/2000/svg" xmlns:xlink="http://www.w3.org/1999/xlink" width="31.815" height="20.873" viewBox="0 0 31.815 20.873">
  <defs>
    <clipPath id="clip-path">
      <rect id="Rectangle_235" data-name="Rectangle 235" width="31.815" height="20.873" fill="#afafaf"/>
    </clipPath>
  </defs>
  <g id="Groupe_117" data-name="Groupe 117" clip-path="url(#clip-path)">
    <path id="Tracé_100" data-name="Tracé 100" d="M580.358,154.639a6.847,6.847,0,0,0-4.77-1.727h-9.049a2.108,2.108,0,0,1,.081,3.105l-.081.079h3.608v0h5.217a3.636,3.636,0,0,1,2.463.875,2.791,2.791,0,0,1,.992,2.225,2.721,2.721,0,0,1-.99,2.191,3.686,3.686,0,0,1-2.465.856h-1.026v-3.367a1.132,1.132,0,0,0-1.859-.867l-5.024,4.219a1.783,1.783,0,0,0,0,2.731l5.024,4.219a1.132,1.132,0,0,0,1.859-.867v-2.939H575.5a7,7,0,0,0,4.835-1.726,6.239,6.239,0,0,0,.027-9" transform="translate(-550.448 -148.569)" fill="#afafaf"/>
    <path id="Tracé_101" data-name="Tracé 101" d="M15.725,13.346H12.117v0H6.9a3.636,3.636,0,0,1-2.463-.875,2.791,2.791,0,0,1-.992-2.225,2.72,2.72,0,0,1,.99-2.191A3.686,3.686,0,0,1,6.9,7.2H7.925v3.367a1.132,1.132,0,0,0,1.859.867l5.024-4.219a1.783,1.783,0,0,0,0-2.731L9.785.267a1.132,1.132,0,0,0-1.859.867V4.072H6.768A7,7,0,0,0,1.933,5.8,5.793,5.793,0,0,0,0,10.3a5.831,5.831,0,0,0,1.906,4.5,6.847,6.847,0,0,0,4.77,1.727h9.049a2.109,2.109,0,0,1-.081-3.105Z" transform="translate(0 0)" fill="#afafaf"/>
  </g>
</svg>
