<svg id="Groupe_128" data-name="Groupe 128" xmlns="http://www.w3.org/2000/svg" xmlns:xlink="http://www.w3.org/1999/xlink" width="14.565" height="21.229" viewBox="0 0 14.565 21.229">
  <defs>
    <clipPath id="clip-path">
      <rect id="Rectangle_241" data-name="Rectangle 241" width="14.565" height="21.229" fill="none"/>
    </clipPath>
  </defs>
  <g id="Groupe_127" data-name="Groupe 127" clip-path="url(#clip-path)">
    <path id="Tracé_112" data-name="Tracé 112" d="M6.229,687.046h11.2a1.56,1.56,0,0,0,0-3.119H13.37a3.424,3.424,0,0,1-3.288,0H6.229a1.56,1.56,0,1,0,0,3.119" transform="translate(-4.545 -665.818)" fill="#afafaf"/>
    <path id="Tracé_113" data-name="Tracé 113" d="M7.282,17.109A2.6,2.6,0,0,1,5.4,16.3a36.671,36.671,0,0,1-3.27-3.937C.7,10.319,0,8.657,0,7.282A7.282,7.282,0,0,1,12.432,2.133a7.235,7.235,0,0,1,2.133,5.149c0,1.374-.7,3.037-2.135,5.082A36.668,36.668,0,0,1,9.16,16.3a2.6,2.6,0,0,1-1.878.808" transform="translate(0)" fill="#afafaf"/>
  </g>
</svg>
