<svg xmlns="http://www.w3.org/2000/svg" xmlns:xlink="http://www.w3.org/1999/xlink" width="44.203" height="44.203" viewBox="0 0 44.203 44.203">
  <defs>
    <clipPath id="clip-path">
      <rect id="Rectangle_61" data-name="Rectangle 61" width="44.203" height="44.203"/>
    </clipPath>
  </defs>
  <g id="Groupe_217" data-name="Groupe 217" transform="translate(0 -2)">
    <g id="Groupe_34" data-name="Groupe 34" transform="translate(0 2)" clip-path="url(#clip-path)">
      <path id="Tracé_43" data-name="Tracé 43" d="M22.1,0C5.319,0,0,5.319,0,22.1S5.319,44.2,22.1,44.2s22.1-5.319,22.1-22.1S38.884,0,22.1,0m0,40.746C7.944,40.746,3.458,36.259,3.458,22.1S7.944,3.457,22.1,3.457,40.745,7.944,40.745,22.1,36.259,40.746,22.1,40.746" transform="translate(0 0)"/>
      <path id="Tracé_44" data-name="Tracé 44" d="M39.814,20.3a8.227,8.227,0,0,0-5.73-2.075h-10.6v22.5h4.06v-7.31a4.455,4.455,0,0,1,0-4.28V22.046h6.268a4.366,4.366,0,0,1,2.959,1.05,3.351,3.351,0,0,1,1.191,2.673A3.267,3.267,0,0,1,36.775,28.4a4.428,4.428,0,0,1-2.961,1.029H30.36a2.15,2.15,0,0,0,.111,3.759h3.5a8.4,8.4,0,0,0,5.808-2.074A6.958,6.958,0,0,0,42.1,25.706a7.006,7.006,0,0,0-2.29-5.408" transform="translate(-8.464 -6.567)"/>
    </g>
  </g>
</svg>
