<svg id="Groupe_298" data-name="Groupe 298" xmlns="http://www.w3.org/2000/svg" xmlns:xlink="http://www.w3.org/1999/xlink" width="136.22" height="124.183" viewBox="0 0 136.22 124.183">
  <defs>
    <clipPath id="clip-path">
      <rect id="Rectangle_354" data-name="Rectangle 354" width="136.22" height="124.183" fill="none"/>
    </clipPath>
  </defs>
  <g id="Groupe_298-2" data-name="Groupe 298" clip-path="url(#clip-path)">
    <path id="Tracé_147" data-name="Tracé 147" d="M97.532,86.1c-1.421,4.278-2.629,8.42-4.166,12.437A69.633,69.633,0,0,1,80.3,119.66a10.445,10.445,0,0,1-3.626,2.162c-1.081.485-2.349.549-3.438,1.021-6.519,2.83-12.716.578-18.852-1.291-19.568-5.962-33.239-18.8-42.27-36.849C5.49,71.459,2.122,57.253.061,42.682c-.342-2.421.761-3.845,2.78-4.979,6.792-3.813,12.242-8.948,15.4-16.215A32.587,32.587,0,0,0,20.928,8.079c-.031-3.848.755-4.684,4.434-5.64A68.7,68.7,0,0,1,45.475.1c5.989.235,12,.01,18-.1a4.649,4.649,0,0,1,4.843,3.015c3.7,8.112,9.23,14.388,17.859,17.6a5.214,5.214,0,0,1,2.592,3c2.585,7.822,4.977,15.707,7.431,23.572.149.477.3.954.48,1.544,2.9-3.754,3.743-4.1,8.212-3.526a38.344,38.344,0,0,1-2.337-4.068c-.717-1.662-.816-3.436.717-4.791,1.517-1.341,3.266-.873,4.641.069,3.678,2.517,7.366,5.059,10.774,7.919,7.571,6.353,13.717,13.8,16.451,23.545,1.661,5.919,1.727,11.763-2.024,17.032-3.858,5.419-9.537,6.733-15.731,6.357A52.841,52.841,0,0,1,97.532,86.1M87.267,35.012c-.9-2.5-1.864-5.388-3.017-8.2a3.812,3.812,0,0,0-1.829-1.725A38.266,38.266,0,0,1,65.337,8.818,4.607,4.607,0,0,0,60.775,6.28c-4.931.11-9.863.119-14.8.154-3.3.024-4.06.616-4.584,3.942a39.056,39.056,0,0,1-16.661,26.67c-2.548,1.808-3.325,3.6-2.748,6.673,2.468,13.161,6.031,25.912,12.873,37.56Q48.5,104.5,74.763,110.486c1.818.418,3.353.351,4.61-1.338A66.781,66.781,0,0,0,90.8,85.813c.753-2.929.731-2.934-2.382-4.1-3.124,4.041-7.654,5.7-12.455,6.861-1.812.44-3.634.862-5.406,1.429-6.711,2.149-12.741.669-18.316-3.326-13.734-9.84-20.005-31.82-13.5-47.4,2.494-5.979,6.386-10.6,12.832-12.527,3.251-.969,6.577-1.686,9.835-2.635a18.112,18.112,0,0,1,16.015,2.541c3.563,2.478,6.667,5.616,9.852,8.355m1.765,44.542c.972-1.472,2.8-2.4,1.307-3.877a15.451,15.451,0,0,0-4.269-2.885,2.208,2.208,0,0,0-2.645,3.157,8.82,8.82,0,0,0,2.6,2.89c9.006,6.231,18.841,10.458,29.806,11.638,4.916.529,9.8.156,13.892-3.073,5.444-4.3,6.569-10.224,5.313-16.576C132.165,56.31,122,47.259,111.076,39.234c-.3,1.075-.285,2.382-.931,2.983-.817.763-4.615-1.028-5.142-2.613-.268-.8.677-2.01,1.07-3.028-1.868-.683-3.346.27-3.193,2.609a7.926,7.926,0,0,0,3.935,6.408A38.249,38.249,0,0,1,118.912,57a10.059,10.059,0,0,0,1.795,1.515L119.17,60.5a10.139,10.139,0,0,0-.726-2.79,28.755,28.755,0,0,0-9.688-9.908,18.17,18.17,0,0,0-7.133-1.943c-2.161-.219-3.428,1.342-3.644,3.481,1.578.731,3.174,1.4,4.707,2.192,4.588,2.365,8.543,5.357,10.706,10.306a1.774,1.774,0,0,1-.655,2.545,18.641,18.641,0,0,0-.753-3.663,11.725,11.725,0,0,0-2.029-2.942c-3.408-3.97-8.084-5.967-12.74-7.937a6.747,6.747,0,0,0-3.776-.673,3.551,3.551,0,0,0-2.075,2.413c-.186.918.312,2.64,1,2.963a37.926,37.926,0,0,1,13.1,10.251,8,8,0,0,0,1.878,1.17l-1.178,1.517a14.7,14.7,0,0,0-1.113-2.018,35.9,35.9,0,0,0-10.921-9.212c-.407-.224-1.039-.683-1.232-.549-1.35.932-1.762-.413-2.468-.941C88.764,53.509,87.139,52.2,85.5,50.92c.247,1.047.928,1.769,1.1,2.6a3.33,3.33,0,0,1-.389,2.528,2.59,2.59,0,0,1-2.349.429C80.14,55,79.746,54.057,82,51.053l.664-.882-.351-.646c-1.113.5-2.654.713-3.223,1.571a4.361,4.361,0,0,0-.32,3.673,12.161,12.161,0,0,0,3.366,4.1c5.415,4.318,11.089,8.319,16.4,12.76,2.944,2.463,6.133,2.876,9.649,2.727a11.056,11.056,0,0,1,1.34.1,3.212,3.212,0,0,1-2.105.623A37.621,37.621,0,0,1,88,69.2c-1.429-.887-2.926-1.779-4.585-.446a4.859,4.859,0,0,0-1.238,5.252c2.062-2.629,3.292-2.792,6.147-.811.6.418,1.211.828,1.785,1.281,2.151,1.7,1.918,3.553-1.072,5.075M32.1,1.765c-2.489.518-4.7.954-6.895,1.44-2.909.645-3.551,1.408-3.538,4.365.056,12.879-5.484,22.8-16.4,29.379-3.791,2.285-4.834,4.561-4.1,8.806,2.458,14.24,5.984,28.1,12.881,40.915,5.814,10.8,13.589,19.858,23.974,26.545.522.336,1.276.841,1.717.687,2.714-.951,5.37-2.07,8.322-3.243C31.585,99.879,22.507,84.1,16.614,66.107l-7.2,2.178c-.057-.178-.113-.356-.17-.534l6.783-2.307c-1.87-8.755-3.708-17.358-5.547-25.973L3.028,40q-.019-.309-.037-.62c2.094-.189,4.19-.348,6.278-.589.533-.061,1.416-.29,1.49-.6.5-2.053,2.25-2.683,3.77-3.6,8.539-5.154,14.581-12.212,16.484-22.224.641-3.37.72-6.848,1.088-10.6m53.289,77.5c-2.384.942-4.4,2.117-6.55,2.513-5.4.991-9.778-1.423-13.516-5-6.6-6.308-9.827-14.282-10.841-23.2-.745-6.552-.091-12.914,3.527-18.653,3.874-6.146,10.495-8.011,17.035-4.855A21.823,21.823,0,0,1,84.4,38.556c2.361,3.94,4.217,8.183,6.173,12.055l1.746-2.356A37.786,37.786,0,0,0,80.459,29.627c-4.633-3.877-9.867-6.521-16.117-5.539-7.932,1.247-12.464,6.659-14.933,13.743-4.028,11.559-2.157,22.731,3.383,33.373,3.368,6.469,8.09,11.719,14.949,14.693,7.3,3.165,15.664,1.19,20.1-4.787l-2.454-1.846m-26.944.974A43.559,43.559,0,0,1,48.9,64.394l-7.763,1.56c-.037-.185-.075-.369-.113-.555l7.643-1.8a44.15,44.15,0,0,1-.909-23.183c-2.807.545-5.266,1.064-7.741,1.484a2.226,2.226,0,0,0-2.023,2.007,39,39,0,0,0-.7,14.475C38.553,67.6,42.047,75.8,48.561,82.574c.4.413,1.171.942,1.562.809,2.688-.912,5.322-1.986,8.324-3.144m7.583-35.711a7.062,7.062,0,0,0,2.617,5.877,4.649,4.649,0,0,1,1.454,2.4c.989,5.22,1.846,10.466,2.733,15.705.215,1.27.759,2.267,2.212,1.893,2.507-.647,5-1.393,7.432-2.262A1.943,1.943,0,0,0,83.41,66.5c-1.124-2.964-2.033-6.12-3.764-8.715a11.9,11.9,0,0,1-1.814-10.2,6.2,6.2,0,0,0-1.95-6.5,5.773,5.773,0,0,0-6.662-1.13,5.152,5.152,0,0,0-3.193,4.58M40.114,114.435c.792.475,1.283.789,1.793,1.072a70.788,70.788,0,0,0,21.182,7.5,13.121,13.121,0,0,0,4.508.5c2.863-.5,5.65-1.446,8.468-2.208-9.736-1.928-18.963-5.015-27.142-10.131l-8.808,3.262M73.271,88.343c-.045-.186-.091-.372-.137-.557L67.41,89.38l-.127-.338L69.6,87.916c-3.149-2.038-6.46-4.194-9.791-6.318-.407-.26-1.007-.609-1.372-.485-2.666.907-5.294,1.925-8.04,2.947,6.748,6.434,14.49,7.741,22.878,4.284M38.746,41.432c3-.589,5.66-1.083,8.3-1.661a1.892,1.892,0,0,0,1.161-.874c1.465-3.008,2.857-6.052,4.269-9.08l-3.938.9c2.5-1.833,6.167-1.3,7.934-4.36-9.057,1.118-14.753,6.242-17.731,15.08m43.883,9.39c-.4,1.282-1.354,2.819-.947,3.4.638.9,2.175,1.228,3.387,1.625.2.066.982-.734,1-1.151.07-1.944-1.245-2.914-3.438-3.871m22.644-12.374.013.854c1.221.748,2.41,1.56,3.688,2.2.3.148.891-.306,1.349-.483a20.677,20.677,0,0,0-2.783-3.177c-.367-.29-1.489.379-2.267.609M92.98,70.963c1.476-2.419-.494-2.969-1.857-3.93-.913,2.826-.913,2.826,1.857,3.93" transform="translate(0 0)"/>
    <path id="Tracé_148" data-name="Tracé 148" d="M150.994,31.111l-3.911,7.936a7.439,7.439,0,0,0-5.867-4.952c3.253-2.251,3.46-5.377,3.479-8.788.685,3.719,3.544,4.87,6.3,5.8m-5.607-2.14-2.117,4.743,3.789,3.095,2.828-5.126-4.5-2.712" transform="translate(-37.908 -6.794)"/>
    <path id="Tracé_149" data-name="Tracé 149" d="M128.129,151.191a61.57,61.57,0,0,0,6.226-19.981,37.772,37.772,0,0,1-6.226,19.981" transform="translate(-34.395 -35.222)"/>
    <path id="Tracé_150" data-name="Tracé 150" d="M175.386,54.476l-2.266,4.549L169.7,55.96c.6-1.7,1.249-3.541,1.777-5.039l3.909,3.555m-3.5-1.484-1.258,2.735,2.179,1.693,1.707-2.933-2.629-1.5" transform="translate(-45.554 -13.669)"/>
    <path id="Tracé_151" data-name="Tracé 151" d="M157.765,144.113c-3.28-1.177-8.892-8.958-8.782-13.153A73.223,73.223,0,0,0,152.9,138.3a62.58,62.58,0,0,0,4.868,5.812" transform="translate(-39.992 -35.155)"/>
    <path id="Tracé_152" data-name="Tracé 152" d="M136.707,31.968l-3.727-4.724.48-.388,3.779,4.662-.532.451" transform="translate(-35.697 -7.209)"/>
    <path id="Tracé_153" data-name="Tracé 153" d="M153.935,24.877l2.8-5.16.568.3-2.8,5.153-.571-.293" transform="translate(-41.322 -5.293)"/>
    <path id="Tracé_154" data-name="Tracé 154" d="M108.126,132.169l6.725-9.686a23.116,23.116,0,0,1-6.725,9.686" transform="translate(-29.025 -32.879)"/>
    <path id="Tracé_155" data-name="Tracé 155" d="M87.743,23l-5.684-7.922.552-.394,5.67,7.932L87.743,23" transform="translate(-22.028 -3.94)"/>
    <path id="Tracé_156" data-name="Tracé 156" d="M37.865,129.158l-6.983,2.165c-.067-.213-.135-.427-.2-.64l6.978-2.182q.1.328.208.656" transform="translate(-8.236 -34.495)"/>
  </g>
</svg>
