<svg xmlns="http://www.w3.org/2000/svg" width="20.683" height="20.683" viewBox="0 0 20.683 20.683">
  <g transform="translate(-25.388 -24.553)">
    <path id="_223ed637876b0981285cd3161e3297dd" data-name="223ed637876b0981285cd3161e3297dd" d="M20.7,13.81a.984.984,0,0,0-.984.984v3.937a.984.984,0,0,1-.984.984H4.953a.984.984,0,0,1-.984-.984V14.794a.984.984,0,1,0-1.968,0v3.937a2.953,2.953,0,0,0,2.953,2.953H18.731a2.953,2.953,0,0,0,2.953-2.953V14.794A.984.984,0,0,0,20.7,13.81Zm-9.556,1.683a.984.984,0,0,0,.325.207.925.925,0,0,0,.748,0,.984.984,0,0,0,.325-.207l3.937-3.937a.988.988,0,0,0-1.4-1.4l-2.254,2.264V2.984a.984.984,0,1,0-1.968,0v9.438L8.6,10.159a.988.988,0,0,0-1.4,1.4Z" transform="translate(23.888 23.053)" fill="#afafaf"/>
    <path id="_223ed637876b0981285cd3161e3297dd_-_Contour" data-name="223ed637876b0981285cd3161e3297dd - Contour" d="M18.731,22.183H4.953A3.456,3.456,0,0,1,1.5,18.731V14.794a1.484,1.484,0,0,1,2.968,0v3.937a.485.485,0,0,0,.484.484H18.731a.485.485,0,0,0,.484-.484V14.794a1.484,1.484,0,0,1,2.968,0v3.937A3.456,3.456,0,0,1,18.731,22.183ZM2.984,14.31a.485.485,0,0,0-.484.484v3.937a2.455,2.455,0,0,0,2.453,2.453H18.731a2.455,2.455,0,0,0,2.453-2.453V14.794a.484.484,0,0,0-.968,0v3.937a1.486,1.486,0,0,1-1.484,1.484H4.953a1.486,1.486,0,0,1-1.484-1.484V14.794A.485.485,0,0,0,2.984,14.31Zm8.858,1.969a1.416,1.416,0,0,1-.566-.117,1.477,1.477,0,0,1-.479-.307l-.008-.008L6.853,11.91a1.488,1.488,0,1,1,2.1-2.1l1.4,1.406V2.984a1.484,1.484,0,1,1,2.968,0v8.227l1.4-1.406a1.488,1.488,0,1,1,2.105,2.1l-3.944,3.944a1.476,1.476,0,0,1-.479.307A1.416,1.416,0,0,1,11.842,16.279Zm-.35-1.144a.482.482,0,0,0,.157.1l.021.009a.427.427,0,0,0,.344,0l.021-.009a.482.482,0,0,0,.157-.1L16.124,11.2a.488.488,0,0,0-.69-.69l-3.107,3.121V2.984a.484.484,0,1,0-.968,0V13.633L8.249,10.512a.488.488,0,0,0-.69.691Z" transform="translate(23.888 23.053)" fill="#afafaf"/>
  </g>
</svg>
