<svg xmlns="http://www.w3.org/2000/svg" width="21.22" height="19.489" viewBox="0 0 21.22 19.489">
  <path id="_0f3dc87438d23bdb11c27793bd448e74" data-name="0f3dc87438d23bdb11c27793bd448e74" d="M2.751,17.471a1.865,1.865,0,0,0,1.516.8,1.073,1.073,0,0,0,.714-.178l13.379-5.173a1.819,1.819,0,0,0,1.249-1.784,1.819,1.819,0,0,0-1.249-1.784L4.981,4.181a1.827,1.827,0,0,0-2.23.624,1.875,1.875,0,0,0,0,2.319l2.854,4.014L2.751,15.152A1.874,1.874,0,0,0,2.751,17.471Zm1.427-1.249L7.211,12.03h5.53a.892.892,0,1,0,0-1.784H7.211L4.179,6.054a.124.124,0,0,1,0-.178.087.087,0,0,1,.089-.089h.089l13.29,5.173s.089,0,.089.178-.089.178-.089.178L4.357,16.49s-.089.089-.178-.089a.124.124,0,0,1,0-.178Z" transform="translate(-3.636 3.271) rotate(-21)" fill="#fff"/>
</svg>
