<svg id="Composant_304_21" data-name="Composant 304 – 21" xmlns="http://www.w3.org/2000/svg" xmlns:xlink="http://www.w3.org/1999/xlink" width="25.383" height="25.415" viewBox="0 0 25.383 25.415">
  <defs>
    <clipPath id="clip-path">
      <rect id="Rectangle_238" data-name="Rectangle 238" width="25.383" height="25.415" fill="#afafaf"/>
    </clipPath>
  </defs>
  <g id="Groupe_123" data-name="Groupe 123" clip-path="url(#clip-path)">
    <path id="Tracé_109" data-name="Tracé 109" d="M1.6,5.863a.234.234,0,0,1,.3-.088,6.211,6.211,0,0,0,2.125.631A1.959,1.959,0,0,0,6.378,4.593a4.735,4.735,0,0,0-.4-2.144c-.067-.172-.144-.34-.227-.526a.234.234,0,0,1,.088-.294A12.714,12.714,0,0,1,9.7.03a.234.234,0,0,1,.273.148,5.992,5.992,0,0,0,.982,1.838,3.834,3.834,0,0,0,.716.674,1.827,1.827,0,0,0,2.394-.263A5.6,5.6,0,0,0,15.4.228c.026-.07.05-.141.077-.211,0-.007.015-.011.022-.017a12.519,12.519,0,0,1,4.039,1.62.235.235,0,0,1,.09.276c-.155.417-.319.83-.451,1.254a3.478,3.478,0,0,0-.129,1.73,1.959,1.959,0,0,0,2.267,1.534,6.511,6.511,0,0,0,2.173-.638.234.234,0,0,1,.3.087,12.882,12.882,0,0,1,1.593,3.851.235.235,0,0,1-.137.269c-.325.139-.647.27-.957.425a4,4,0,0,0-1.438,1.114,1.842,1.842,0,0,0,.149,2.577,5.609,5.609,0,0,0,2.176,1.321l.055.02a.233.233,0,0,1,.151.256,12.693,12.693,0,0,1-1.571,3.845.234.234,0,0,1-.263.092c-.614-.193-1.208-.4-1.818-.544a2.414,2.414,0,0,0-1.786.2A1.979,1.979,0,0,0,19,21.3a5.89,5.89,0,0,0,.629,2.211.234.234,0,0,1-.075.29,12.687,12.687,0,0,1-3.883,1.606.233.233,0,0,1-.259-.15,6.282,6.282,0,0,0-1.01-1.878A2.353,2.353,0,0,0,13,22.451a2.081,2.081,0,0,0-2,.912,6.093,6.093,0,0,0-1.01,1.847l-.02.053a.234.234,0,0,1-.271.145,12.868,12.868,0,0,1-3.841-1.582.235.235,0,0,1-.094-.285,9.534,9.534,0,0,0,.435-1.226,4.846,4.846,0,0,0,.166-1.473,1.842,1.842,0,0,0-2-1.815,5.164,5.164,0,0,0-2.1.48c-.117.05-.232.1-.357.157a.235.235,0,0,1-.294-.089,12.733,12.733,0,0,1-1.589-3.82.234.234,0,0,1,.122-.262,15.333,15.333,0,0,0,1.563-.83,3.757,3.757,0,0,0,.977-.958,1.774,1.774,0,0,0-.265-2.343A5.4,5.4,0,0,0,.3,10.051L.153,10a.234.234,0,0,1-.146-.271A12.878,12.878,0,0,1,1.6,5.863m15.964,6.876a4.87,4.87,0,1,0-4.854,4.853,4.862,4.862,0,0,0,4.854-4.853" transform="translate(-0.001)" fill="#afafaf"/>
  </g>
</svg>
