<svg xmlns="http://www.w3.org/2000/svg" width="20.569" height="20.873" viewBox="0 0 20.569 20.873">
  <g id="Groupe_116" data-name="Groupe 116" transform="translate(0 0)">
    <path id="Tracé_91" data-name="Tracé 91" d="M6295.081,1019.334a6.261,6.261,0,0,0,4.322,3.059,7.564,7.564,0,0,0,5.431-1.138l2.688-1.645a1.936,1.936,0,0,0-1.682-2.936l-2.648,1.623a3.991,3.991,0,0,1-2.756.6,2.944,2.944,0,0,1-2.15-1.461,3.012,3.012,0,0,1-.34-2.61,3.921,3.921,0,0,1,1.776-2.2l4.811-2.945v0l2.323-1.422-.208-.068a2.418,2.418,0,0,1-1.591-2.866l-7.337,4.493a7.4,7.4,0,0,0-3.422,4.284,6.3,6.3,0,0,0,.785,5.225" transform="translate(-6294.04 -1001.638)" fill="#afafaf"/>
    <path id="Tracé_92" data-name="Tracé 92" d="M6528.6,803.067a6.26,6.26,0,0,0-4.323-3.059,7.57,7.57,0,0,0-5.433,1.137l-2.685,1.645a1.933,1.933,0,0,0,1.681,2.937l2.65-1.623a3.981,3.981,0,0,1,2.754-.6,2.938,2.938,0,0,1,2.149,1.461,3.022,3.022,0,0,1,.343,2.61,3.936,3.936,0,0,1-1.777,2.2l-4.81,2.945,0,0-2.321,1.422a2.353,2.353,0,0,1,1.8,2.926l0,.009,7.338-4.493a7.393,7.393,0,0,0,3.422-4.285,6.3,6.3,0,0,0-.782-5.225" transform="translate(-6509.066 -799.891)" fill="#afafaf"/>
  </g>
</svg>
