<svg xmlns="http://www.w3.org/2000/svg" width="23.588" height="21.229" viewBox="0 0 23.588 21.229">
  <path id="_10a38a4201d6ae9383f151042ecd24ef" data-name="10a38a4201d6ae9383f151042ecd24ef" d="M17.119,0c4.068,0,6.468,2.341,6.468,6.347H18.6v.041A4.142,4.142,0,0,0,14.4,10.476,4.142,4.142,0,0,0,18.6,14.565h4.99v.368c0,3.955-2.4,6.3-6.468,6.3H6.468C2.4,21.229,0,18.888,0,14.933H0V6.3C0,2.341,2.4,0,6.468,0H17.119Zm5.588,8.105a.87.87,0,0,1,.881.859h0v2.984a.88.88,0,0,1-.881.859H18.692a2.484,2.484,0,0,1-2.464-1.881,2.338,2.338,0,0,1,.511-1.948A2.467,2.467,0,0,1,18.6,8.105h4.109Zm-3.543,1.38h-.388a.9.9,0,0,0-.637.251.858.858,0,0,0-.265.618.9.9,0,0,0,.9.889h.388a.879.879,0,1,0,0-1.758Zm-6.919-4.9H5.588a.891.891,0,0,0-.9.869.9.9,0,0,0,.9.889h6.657a.879.879,0,1,0,0-1.758Z" transform="translate(0)" fill="#afafaf"/>
</svg>
